<svg width="190" height="85" viewBox="0 0 190 85" fill="none" xmlns="http://www.w3.org/2000/svg">
<path fill-rule="evenodd" clip-rule="evenodd" d="M105.144 4.09687C106.269 2.96007 107.558 2.62102 107.866 3.5185C108.173 4.41598 107.512 6.54998 106.557 8.83688C104.084 14.6871 102.285 16.6748 102.932 18.5097C103.58 20.3445 105.739 21.8337 105.549 23.7749C105.275 26.3676 102.527 27.644 106.891 29.7115C107.512 30.004 107.84 30.0971 108.134 29.2063C108.618 27.6506 108.873 23.6486 110.156 27.0922C110.98 29.2727 110.47 29.8578 112.04 28.9337C114.356 27.5709 116.666 25.8823 119.479 25.8823C122.293 25.8823 120.952 28.4949 121.94 30.4694C122.437 31.4599 123.543 31.8455 124.321 32.4638C126.755 34.3319 125.741 36.8714 131.335 36.0271C135.261 35.462 133.881 36.6919 137.224 36.6055C141.052 36.4991 144.238 34.7839 144.853 37.4564C145.344 39.4973 144.448 41.5914 144.258 43.8783C144.166 45.0417 144.356 45.773 144.572 45.6733C145.082 45.4473 145.88 39.6901 145.979 41.3122C145.954 43.6518 145.748 45.9858 145.364 48.2926C144.519 52.893 143.276 52.3479 145.265 53.8237C147.536 55.5123 148.648 57.0347 149.603 57.3604C150.761 57.746 153.595 56.3699 153.64 56.8286C153.686 57.2873 150.565 59.4412 153.372 58.3576C153.372 58.3576 160.373 55.253 159.529 56.7289C158.75 58.0585 154.111 60.2191 154.759 61.0235C155.086 61.4356 156.186 61.9675 157.167 62.845C158.148 63.7225 159.006 64.9258 159.837 65.5773C160.668 66.2288 161.479 66.3286 162.984 67.3258C164.489 68.323 166.687 70.2043 169.645 72.1455C174.133 75.0906 182.187 78.9929 180.853 81.3397C179.341 83.9656 168.571 78.0157 165.516 76.4667C162.46 74.9177 160.72 74.0867 159.483 72.9034C158.247 71.7201 157.475 70.1644 156.683 69.5794C155.557 68.7085 153.614 69.6592 155.374 72.0923C156.617 73.8408 159.686 76.5731 158.757 76.7459C158.207 76.8456 155.145 75.6091 151.625 78.1952C149.976 79.4184 148.674 82.2239 143.774 80.8544C142.419 80.4621 141.608 79.7907 139.671 78.9663C133.658 76.3936 132.958 77.1116 129.085 73.0962C128.216 72.306 127.403 71.4552 126.651 70.55C126.199 69.8453 126.343 69.3135 125.996 68.9944C125.65 68.6753 124.779 68.5889 124.21 68.3296C123.641 68.0703 123.353 67.6249 122.247 67.4055C121.141 67.1861 119.237 67.1928 118.76 66.9003C118.007 66.4349 121.115 65.0322 119.689 64.2411C118.557 63.6361 114.598 65.1984 112.439 64.1746C110.28 63.1508 109.822 59.1288 106.001 58.3776C103.384 57.8723 102.664 60.9969 101.539 63.5165C100.969 64.7995 100.348 65.7701 100.459 66.8405C100.57 67.9108 101.447 69.001 101.702 71.3012C102.114 74.8845 101.015 83.2277 100.106 78.255C99.772 76.4135 99.5365 72.9366 99.0327 69.7456C98.3483 66.1853 97.8525 62.5902 97.5474 58.9759C122.142 58.2579 107.597 34.5047 116.378 34.2188V32.9291C98.5616 32.9291 113.728 55.1866 97.4035 56.5959C97.4035 53.5445 96.8015 54.668 97.2333 20.5573C97.2922 16.1031 97.0828 16.2627 98.7579 13.9093C99.1439 13.8628 104.012 5.22038 105.144 4.09687ZM90.2127 13.8627C85.6326 7.51393 85.456 5.79876 83.7744 4.09023C82.649 2.95342 81.3601 2.61437 81.0525 3.51185C80.745 4.40932 81.4124 6.54332 82.3611 8.83023C84.8736 14.7336 86.6337 16.7081 85.9859 18.503C85.3382 20.298 83.1855 21.827 83.3688 23.7682C83.6501 26.3609 86.3981 27.644 82.0602 29.7049C81.4386 29.9974 81.1049 30.0905 80.817 29.1996C80.3263 27.6639 80.0907 23.6486 78.7887 27.0856C77.9708 29.2794 78.4615 29.8445 76.9043 28.9271C74.5881 27.5642 72.2849 25.8756 69.4649 25.8756C66.6449 25.8756 67.9862 28.5348 67.0047 30.4627C66.5075 31.4533 65.4083 31.8389 64.6231 32.4571C62.3003 34.2521 63.1117 36.8448 57.609 36.0204C53.6832 35.4487 55.0638 36.6852 51.7203 36.5988C47.8927 36.4924 44.7324 34.7706 44.0912 37.4498C43.607 39.4441 44.4969 41.5582 44.6866 43.8717C44.8175 45.5005 44.4642 47.1558 43.6398 43.3399C43.3453 42.0103 43.0182 40.335 42.9855 41.3056C43.024 43.6462 43.2427 45.9801 43.6398 48.286C44.4707 52.8996 45.727 52.3279 43.7379 53.8171C41.5395 55.4525 40.3356 57.0347 39.3934 57.3538C38.2287 57.746 35.4087 56.3632 35.3629 56.8219C35.3171 57.2807 38.425 59.4213 35.6246 58.351C35.6246 58.351 28.6105 55.2397 29.4742 56.7222C30.2136 58.0186 34.8787 60.2257 34.244 61.0168C33.9038 61.429 32.8111 61.9608 31.8362 62.8384C30.8613 63.7159 29.9976 64.9192 29.1601 65.5707C28.3226 66.2222 27.5179 66.3219 26.013 67.3191C24.5081 68.3163 22.3162 70.1977 19.3588 72.1389C14.903 75.064 6.79622 78.9863 8.15062 81.333C9.64242 83.959 20.4187 78.009 23.4874 76.4601C26.556 74.9111 28.2834 74.0801 29.52 72.8967C30.7566 71.7134 31.5222 70.1578 32.3073 69.5728C33.4392 68.7019 35.3825 69.6326 33.6159 72.0857C32.3793 73.8142 29.3041 76.5664 30.2266 76.7393C30.8155 76.8456 33.8253 75.5958 37.3585 78.1885C39.0989 79.4783 40.2963 82.2239 45.2101 80.8477C46.571 80.4555 47.3758 79.7841 49.3125 78.9597C55.0834 76.4933 56.0649 77.0916 59.8991 73.0895C60.7693 72.301 61.5827 71.4501 62.3331 70.5434C62.7845 69.8387 62.6471 69.3069 62.9874 68.9878C63.3276 68.6686 64.2044 68.5822 64.7736 68.323C65.3653 67.8931 66.0311 67.5796 66.7365 67.3989C67.8357 67.1861 69.7463 67.1861 70.2174 66.8936C70.9829 66.4216 67.8553 65.0255 69.2883 64.2344C70.4464 63.6228 74.3722 65.1984 76.5379 64.168C78.7036 63.1375 79.2467 59.1022 82.9762 58.3709C85.6261 57.859 86.3262 61.0301 87.445 63.5098C88.0143 64.7929 88.6358 65.7635 88.5115 66.8338C88.3872 67.9041 87.5366 68.9944 87.2749 71.2946C86.8496 74.9709 87.9816 83.2011 88.8714 78.2484C89.2051 76.4069 89.4406 72.93 89.9445 69.739C90.6255 66.1781 91.1213 62.5832 91.4297 58.9692C66.8215 58.2114 81.3601 34.4715 72.5794 34.1723V32.8826C90.3959 32.8826 75.2358 55.14 91.554 56.5494C92.2083 47.7342 91.783 25.4435 91.7241 20.5107C91.6653 16.0566 91.8877 16.2095 90.1996 13.8627H90.2127Z" fill="#22386F"/>
</svg>
